<?xml version="1.0" standalone="no"?>
<!DOCTYPE svg PUBLIC "-//W3C//DTD SVG 20010904//EN"
 "http://www.w3.org/TR/2001/REC-SVG-20010904/DTD/svg10.dtd">
<svg version="1.0" xmlns="http://www.w3.org/2000/svg"
 width="632.000000pt" height="632.000000pt" viewBox="0 0 632.000000 632.000000"
 preserveAspectRatio="xMidYMid meet">
<metadata>
Created by potrace 1.14, written by Peter Selinger 2001-2017
</metadata>
<g transform="translate(0.000000,632.000000) scale(0.100000,-0.100000)"
fill="#000000" stroke="none">
<path d="M3743 5593 c-210 -296 -385 -537 -390 -535 -4 1 -42 14 -83 29 -69
25 -87 28 -225 28 -139 0 -156 -2 -234 -29 -69 -23 -85 -26 -92 -15 -5 8 -127
194 -272 414 l-262 400 -43 3 c-41 3 -42 3 -42 -30 0 -26 54 -113 272 -441
153 -229 267 -411 262 -415 -5 -4 -35 -29 -66 -55 -110 -92 -191 -224 -232
-380 l-22 -82 -859 -5 c-960 -6 -889 0 -1040 -78 -104 -53 -229 -182 -283
-289 -78 -157 -73 -36 -70 -1823 l3 -1595 27 -73 c39 -108 84 -177 168 -262
78 -79 176 -138 290 -177 53 -17 154 -18 2555 -21 2793 -3 2584 -8 2740 68
148 72 252 178 322 328 66 141 63 51 63 1765 0 1744 5 1627 -73 1787 -33 68
-58 102 -127 170 -98 98 -185 149 -306 180 -74 19 -114 20 -1015 20 l-939 0
-6 28 c-38 178 -92 279 -211 400 l-92 93 374 530 c206 291 375 538 375 549 0
22 -36 50 -65 50 -17 0 -106 -119 -402 -537z m1959 -1461 c75 -38 134 -96 170
-170 l33 -67 0 -1570 0 -1570 -28 -61 c-36 -77 -104 -145 -182 -181 l-60 -28
-2495 0 -2495 0 -59 29 c-76 37 -140 101 -174 174 l-27 57 0 1580 0 1580 28
55 c47 92 122 158 210 186 34 10 504 12 2537 11 l2495 -2 47 -23z"/>
<path d="M1680 3764 c-552 -51 -807 -204 -903 -541 -22 -78 -22 -81 -22 -888
0 -808 0 -810 23 -890 83 -298 298 -452 727 -521 136 -21 574 -30 742 -15 521
49 785 214 870 546 17 64 18 135 18 880 0 746 -1 816 -18 880 -77 301 -307
465 -745 530 -104 16 -583 29 -692 19z m380 -745 c93 -11 151 -37 184 -82 21
-28 21 -39 24 -560 2 -293 0 -557 -3 -586 -14 -113 -100 -154 -320 -154 -158
0 -232 18 -282 68 l-33 33 2 595 c3 579 4 596 23 617 57 65 221 93 405 69z"/>
<path d="M3530 3710 c-49 -12 -77 -49 -85 -112 -4 -29 -5 -161 -3 -293 3 -262
9 -288 63 -313 18 -8 117 -12 335 -12 l310 0 0 -967 c0 -902 1 -970 18 -1003
29 -59 49 -61 448 -58 340 3 354 4 381 24 15 11 33 36 40 55 9 25 12 277 12
991 l1 957 316 3 316 3 29 33 30 33 -3 304 c-3 294 -4 305 -24 325 -12 12 -39
25 -60 30 -49 12 -2076 11 -2124 0z"/>
</g>
</svg>
