<?xml version="1.0" encoding="utf-8"?>
<!-- Generator: Adobe Illustrator 28.2.0, SVG Export Plug-In . SVG Version: 6.00 Build 0)  -->
<svg version="1.1" id="Layer_1" xmlns="http://www.w3.org/2000/svg" xmlns:xlink="http://www.w3.org/1999/xlink" x="0px" y="0px"
	 viewBox="0 0 78.9 75.8" style="enable-background:new 0 0 78.9 75.8;" xml:space="preserve">
<style type="text/css">
	.st0{stroke:#000000;stroke-miterlimit:10;}
	.st1{fill:none;stroke:#000000;stroke-miterlimit:10;}
	.st2{fill:none;stroke:#000000;stroke-width:4;stroke-miterlimit:10;}
	.st3{fill:#FFFDFD;stroke:#000000;stroke-width:4;stroke-miterlimit:10;}
	.st4{fill:none;}
	.st5{enable-background:new    ;}
</style>
<path class="st0" d="M39.3,19.5L39,19.5c0,0-0.1,0-0.1-0.1L51.7,1.3c0,0,0,0,0.1,0L52,1.3c0,0,0.1,0,0.1,0.1L39.3,19.5
	C39.4,19.5,39.3,19.6,39.3,19.5z"/>
<path class="st1" d="M36.9,1.2"/>
<path class="st0" d="M35.7,17.9l0.2,0c0,0,0.1,0,0,0L27,4.3c0,0,0,0-0.1,0l-0.2,0c0,0,0,0,0,0.1L35.7,17.9
	C35.6,17.9,35.6,17.9,35.7,17.9z"/>
<path class="st1" d="M30.4,6"/>
<path class="st1" d="M36.9,16.9"/>
<path class="st0" d="M29.4,22.4c0-4.8,3.9-8.6,8.6-8.6s8.6,3.9,8.6,8.6"/>
<path id="XMLID_00000181781174736251493230000008411577000097193403_" class="st2" d="M76.9,35.7"/>
<path id="XMLID_00000057864616664223787420000015698357632948457874_" class="st2" d="M76.9,28.3"/>
<path class="st3" d="M69.3,73.3H9.2c-3.6,0-6.5-2.9-6.5-6.5V29.8c0-3.6,2.9-6.5,6.5-6.5h60.1c3.6,0,6.5,2.9,6.5,6.5v37.1
	C75.7,70.5,72.8,73.3,69.3,73.3z"/>
<rect x="6.5" y="30.8" class="st4" width="69.2" height="40.1"/>
<g class="st5">
	<path d="M24.3,66.1c-12,0-14.9-3.9-14.9-9.8V40c0-5.9,2.9-9.8,14.9-9.8c12,0,14.9,4,14.9,9.8v16.4C39.1,62.2,36.3,66.1,24.3,66.1z
		 M24.3,56.9c3.5,0,4-1,4-2.3V41.7c0-1.2-0.5-2.2-4-2.2c-3.5,0-4,1-4,2.2v12.9C20.2,55.9,20.8,56.9,24.3,56.9z"/>
	<path d="M53.5,65.4c-1.2,0-1.7-0.5-1.7-1.7V40.1h-7.1c-1.2,0-1.7-0.5-1.7-1.7v-5.8c0-1.2,0.5-1.7,1.7-1.7h25.3
		c1.2,0,1.7,0.5,1.7,1.7v5.8c0,1.2-0.5,1.7-1.7,1.7H63v23.6c0,1.2-0.5,1.7-1.7,1.7H53.5z"/>
</g>
</svg>
