<?xml version="1.0" encoding="utf-8"?>
<!-- Generator: Adobe Illustrator 28.2.0, SVG Export Plug-In . SVG Version: 6.00 Build 0)  -->
<svg version="1.1" id="Layer_1" xmlns="http://www.w3.org/2000/svg" xmlns:xlink="http://www.w3.org/1999/xlink" x="0px" y="0px"
	 viewBox="0 0 140.6 78.8" style="enable-background:new 0 0 140.6 78.8;" xml:space="preserve">
<style type="text/css">
	.st0{stroke:#000000;stroke-miterlimit:10;}
	.st1{fill:none;stroke:#000000;stroke-miterlimit:10;}
	.st2{fill:none;stroke:#000000;stroke-width:4;stroke-miterlimit:10;}
	.st3{fill:#FFFDFD;stroke:#000000;stroke-width:4;stroke-miterlimit:10;}
	.st4{fill:none;}
	.st5{enable-background:new    ;}
</style>
<path class="st0" d="M72.4,20.8l-0.3-0.1c0,0-0.1,0-0.1-0.1L84.8,2.5c0,0,0,0,0.1,0l0.3,0.1c0,0,0.1,0,0.1,0.1L72.4,20.8
	C72.5,20.8,72.4,20.9,72.4,20.8z"/>
<path class="st1" d="M70.1,2.5"/>
<path class="st0" d="M68.8,19.2l0.2,0c0,0,0.1,0,0,0L60.1,5.6c0,0,0,0-0.1,0l-0.2,0c0,0,0,0,0,0.1L68.8,19.2
	C68.7,19.2,68.8,19.2,68.8,19.2z"/>
<path class="st1" d="M63.5,7.3"/>
<path class="st1" d="M70.1,18.2"/>
<path class="st0" d="M62.5,23.7c0-4.8,3.9-8.6,8.6-8.6s8.6,3.9,8.6,8.6"/>
<path id="XMLID_00000181781174736251493230000008411577000097193403_" class="st2" d="M110,37"/>
<path id="XMLID_00000057864616664223787420000015698357632948457874_" class="st2" d="M110,29.6"/>
<path class="st3" d="M102.4,74.6H42.3c-3.6,0-6.5-2.9-6.5-6.5V31.1c0-3.6,2.9-6.5,6.5-6.5h60.1c3.6,0,6.5,2.9,6.5,6.5v37.1
	C108.8,71.8,105.9,74.6,102.4,74.6z"/>
<rect x="39.7" y="32.1" class="st4" width="69.2" height="40.1"/>
<g class="st5">
	<path d="M57.4,67.4c-12,0-14.9-3.9-14.9-9.8V41.3c0-5.9,2.9-9.8,14.9-9.8c12,0,14.9,4,14.9,9.8v16.4C72.3,63.5,69.4,67.4,57.4,67.4
		z M57.4,58.2c3.5,0,4-1,4-2.3V43c0-1.2-0.5-2.2-4-2.2c-3.5,0-4,1-4,2.2v12.9C53.3,57.2,53.9,58.2,57.4,58.2z"/>
	<path d="M86.7,66.7c-1.2,0-1.7-0.5-1.7-1.7V41.4h-7.1c-1.2,0-1.7-0.5-1.7-1.7v-5.8c0-1.2,0.5-1.7,1.7-1.7h25.3
		c1.2,0,1.7,0.5,1.7,1.7v5.8c0,1.2-0.5,1.7-1.7,1.7h-7.1V65c0,1.2-0.5,1.7-1.7,1.7H86.7z"/>
</g>
<rect x="161.1" y="75.4" class="st4" width="2.2" height="0.2"/>
</svg>
