<?xml version="1.0" encoding="utf-8"?>
<!-- Generator: Adobe Illustrator 28.2.0, SVG Export Plug-In . SVG Version: 6.00 Build 0)  -->
<svg version="1.1" id="Layer_1" xmlns="http://www.w3.org/2000/svg" xmlns:xlink="http://www.w3.org/1999/xlink" x="0px" y="0px"
	 viewBox="0 0 1024 1024" style="enable-background:new 0 0 1024 1024;" xml:space="preserve">
<style type="text/css">
	.st0{clip-path:url(#SVGID_00000172435335077489921190000010206933146557502395_);}
	.st1{clip-path:url(#SVGID_00000062172662861886335810000001862053072103215233_);}
	.st2{clip-path:url(#SVGID_00000038375392972782950540000017700777778810844091_);}
	
		.st3{clip-path:url(#SVGID_00000038375392972782950540000017700777778810844091_);fill:none;stroke:#000000;stroke-width:6.7481;stroke-miterlimit:10;}
	
		.st4{clip-path:url(#SVGID_00000038375392972782950540000017700777778810844091_);fill:none;stroke:#000000;stroke-width:26.9923;stroke-miterlimit:10;}
</style>
<g>
	<defs>
		<rect id="SVGID_1_" x="43.21" y="158.52" width="948.95" height="531.46"/>
	</defs>
	<clipPath id="SVGID_00000068650283608355626830000005306571258156988805_">
		<use xlink:href="#SVGID_1_"  style="overflow:visible;"/>
	</clipPath>
	
		<g id="Artwork_4_00000176041428662616945330000008068921969058095789_" style="clip-path:url(#SVGID_00000068650283608355626830000005306571258156988805_);">
		<g>
			<defs>
				<rect id="SVGID_00000071557368994820635000000010112701353106412938_" x="43.21" y="158.52" width="948.95" height="531.46"/>
			</defs>
			<clipPath id="SVGID_00000138559007051439714840000006522459697385217194_">
				<use xlink:href="#SVGID_00000071557368994820635000000010112701353106412938_"  style="overflow:visible;"/>
			</clipPath>
			<g style="clip-path:url(#SVGID_00000138559007051439714840000006522459697385217194_);">
				<defs>
					<rect id="SVGID_00000045596480598724016260000003887822827701879424_" x="43.21" y="158.52" width="948.95" height="531.47"/>
				</defs>
				<clipPath id="SVGID_00000080929450350787035140000005132468367452279198_">
					<use xlink:href="#SVGID_00000045596480598724016260000003887822827701879424_"  style="overflow:visible;"/>
				</clipPath>
				<path style="clip-path:url(#SVGID_00000080929450350787035140000005132468367452279198_);" d="M518.34,285.66l-2.01-0.48
					c-0.23-0.05-0.36-0.28-0.31-0.5l85.8-122.46c0.05-0.22,0.28-0.36,0.51-0.31l2.01,0.48c0.23,0.05,0.36,0.28,0.31,0.5
					l-85.8,122.46C518.79,285.58,518.57,285.72,518.34,285.66"/>
				
					<path style="clip-path:url(#SVGID_00000080929450350787035140000005132468367452279198_);fill:none;stroke:#000000;stroke-width:6.7481;stroke-miterlimit:10;" d="
					M518.34,285.66l-2.01-0.48c-0.23-0.05-0.36-0.28-0.31-0.5l85.8-122.46c0.05-0.22,0.28-0.36,0.51-0.31l2.01,0.48
					c0.23,0.05,0.36,0.28,0.31,0.5l-85.8,122.46C518.79,285.58,518.57,285.72,518.34,285.66z"/>
				<path style="clip-path:url(#SVGID_00000080929450350787035140000005132468367452279198_);" d="M514.11,281.5l1.63-0.28
					c0.18-0.03,0.3-0.19,0.28-0.36l-60.4-91.65c-0.03-0.17-0.2-0.28-0.38-0.24l-1.63,0.28c-0.18,0.03-0.31,0.19-0.28,0.36
					l60.41,91.65C513.76,281.43,513.93,281.54,514.11,281.5"/>
				
					<path style="clip-path:url(#SVGID_00000080929450350787035140000005132468367452279198_);fill:none;stroke:#000000;stroke-width:6.7481;stroke-miterlimit:10;" d="
					M514.11,281.5l1.63-0.28c0.18-0.03,0.3-0.19,0.28-0.36l-60.4-91.65c-0.03-0.17-0.2-0.28-0.38-0.24l-1.63,0.28
					c-0.18,0.03-0.31,0.19-0.28,0.36l60.41,91.65C513.76,281.43,513.93,281.54,514.11,281.5z"/>
				<path style="clip-path:url(#SVGID_00000080929450350787035140000005132468367452279198_);" d="M464.88,304.7
					c0-32.05,25.98-58.03,58.03-58.03c32.05,0,58.03,25.98,58.03,58.03"/>
				
					<path style="clip-path:url(#SVGID_00000080929450350787035140000005132468367452279198_);fill:none;stroke:#000000;stroke-width:6.7481;stroke-miterlimit:10;" d="
					M464.88,304.7c0-32.05,25.98-58.03,58.03-58.03c32.05,0,58.03,25.98,58.03,58.03"/>
				
					<path style="clip-path:url(#SVGID_00000080929450350787035140000005132468367452279198_);fill:none;stroke:#000000;stroke-width:26.9923;stroke-miterlimit:10;" d="
					M785.67,566.15v74.1c0,20.01-16.23,36.24-36.24,36.24H296.4c-20.02,0-36.24-16.23-36.24-36.24v-74.1"/>
				
					<path style="clip-path:url(#SVGID_00000080929450350787035140000005132468367452279198_);fill:none;stroke:#000000;stroke-width:26.9923;stroke-miterlimit:10;" d="
					M260.15,414.06v-55.98c0-20.02,16.23-36.24,36.24-36.24h453.03c20.02,0,36.24,16.22,36.24,36.24v55.98"/>
				
					<line style="clip-path:url(#SVGID_00000080929450350787035140000005132468367452279198_);fill:none;stroke:#000000;stroke-width:26.9923;stroke-miterlimit:10;" x1="785.67" y1="358.07" x2="785.67" y2="408.06"/>
				<path style="clip-path:url(#SVGID_00000080929450350787035140000005132468367452279198_);" d="M105.33,560.03
					c-47.23,0-58.75-15.49-58.75-38.55v-64.42c0-23.04,11.52-38.72,58.75-38.72s58.56,15.68,58.56,38.72v64.42
					C163.89,544.54,152.56,560.03,105.33,560.03 M105.33,523.57c13.79,0,15.86-3.78,15.86-8.87v-50.82c0-4.92-2.07-8.69-15.86-8.69
					c-13.6,0-15.87,3.77-15.87,8.69v50.82C89.46,519.79,91.73,523.57,105.33,523.57"/>
				
					<path style="clip-path:url(#SVGID_00000080929450350787035140000005132468367452279198_);fill:none;stroke:#000000;stroke-width:6.7481;stroke-miterlimit:10;" d="
					M105.33,560.03c-47.23,0-58.75-15.49-58.75-38.55v-64.42c0-23.04,11.52-38.72,58.75-38.72s58.56,15.68,58.56,38.72v64.42
					C163.89,544.54,152.56,560.03,105.33,560.03z M105.33,523.57c13.79,0,15.86-3.78,15.86-8.87v-50.82c0-4.92-2.07-8.69-15.86-8.69
					c-13.6,0-15.87,3.77-15.87,8.69v50.82C89.46,519.79,91.73,523.57,105.33,523.57z"/>
				<path style="clip-path:url(#SVGID_00000080929450350787035140000005132468367452279198_);" d="M313.47,421.17
					c4.72,0,6.8,2.08,6.8,6.8v73.3c0,8.12,0,14.17-3.4,23.43l-9.45,25.69c-1.32,3.78-3.58,6.8-7.56,6.8h-25.12
					c-4.15,0-7.55-1.7-8.69-5.67l-8.68-30.78c-0.76-2.46-1.89-3.22-3.41-3.22h-1.69c-1.51,0-2.65,0.76-3.4,3.22l-8.88,30.78
					c-1.13,3.78-3.97,5.67-7.94,5.67h-24.93c-4.16,0-7-2.84-8.32-6.8l-9.44-26.07c-3.4-9.27-3.4-15.3-3.4-23.44v-72.91
					c0-4.72,2.08-6.8,6.8-6.8h29.09c4.72,0,6.8,2.08,6.8,6.8v69.53l10.96-23.81c2.08-4.35,5.1-5.85,10.01-5.85h7.94
					c4.91,0,7.94,1.5,10.01,5.85l10.95,23.81v-69.53c0-4.72,1.89-6.8,6.8-6.8H313.47z"/>
				
					<path style="clip-path:url(#SVGID_00000080929450350787035140000005132468367452279198_);fill:none;stroke:#000000;stroke-width:6.7481;stroke-miterlimit:10;" d="
					M313.47,421.17c4.72,0,6.8,2.08,6.8,6.8v73.3c0,8.12,0,14.17-3.4,23.43l-9.45,25.69c-1.32,3.78-3.58,6.8-7.56,6.8h-25.12
					c-4.15,0-7.55-1.7-8.69-5.67l-8.68-30.78c-0.76-2.46-1.89-3.22-3.41-3.22h-1.69c-1.51,0-2.65,0.76-3.4,3.22l-8.88,30.78
					c-1.13,3.78-3.97,5.67-7.94,5.67h-24.93c-4.16,0-7-2.84-8.32-6.8l-9.44-26.07c-3.4-9.27-3.4-15.3-3.4-23.44v-72.91
					c0-4.72,2.08-6.8,6.8-6.8h29.09c4.72,0,6.8,2.08,6.8,6.8v69.53l10.96-23.81c2.08-4.35,5.1-5.85,10.01-5.85h7.94
					c4.91,0,7.94,1.5,10.01,5.85l10.95,23.81v-69.53c0-4.72,1.89-6.8,6.8-6.8H313.47z"/>
				<path style="clip-path:url(#SVGID_00000080929450350787035140000005132468367452279198_);" d="M351.2,557.19
					c-4.72,0-6.8-2.08-6.8-6.8V427.97c0-4.72,2.08-6.8,6.8-6.8h19.64c4.91,0,7.94,1.32,11.15,5.1l36.65,41.95v-40.25
					c0-4.72,2.08-6.8,6.8-6.8h28.34c4.72,0,6.8,2.08,6.8,6.8v122.42c0,4.72-2.07,6.8-6.8,6.8h-28.34c-4.72,0-6.8-2.08-6.8-6.8
					v-23.24l-32.3-39.1v62.34c0,4.72-2.08,6.8-6.8,6.8H351.2z"/>
				
					<path style="clip-path:url(#SVGID_00000080929450350787035140000005132468367452279198_);fill:none;stroke:#000000;stroke-width:6.7481;stroke-miterlimit:10;" d="
					M351.2,557.19c-4.72,0-6.8-2.08-6.8-6.8V427.97c0-4.72,2.08-6.8,6.8-6.8h19.64c4.91,0,7.94,1.32,11.15,5.1l36.65,41.95v-40.25
					c0-4.72,2.08-6.8,6.8-6.8h28.34c4.72,0,6.8,2.08,6.8,6.8v122.42c0,4.72-2.07,6.8-6.8,6.8h-28.34c-4.72,0-6.8-2.08-6.8-6.8
					v-23.24l-32.3-39.1v62.34c0,4.72-2.08,6.8-6.8,6.8H351.2z"/>
				<path style="clip-path:url(#SVGID_00000080929450350787035140000005132468367452279198_);" d="M520.05,557.19
					c-4.72,0-6.8-2.08-6.8-6.8v-92.76h-27.78c-4.72,0-6.8-2.08-6.8-6.8v-22.86c0-4.72,2.07-6.8,6.8-6.8h99.74
					c4.72,0,6.8,2.08,6.8,6.8v22.86c0,4.72-2.08,6.8-6.8,6.8h-27.77v92.76c0,4.72-2.08,6.8-6.8,6.8H520.05z"/>
				
					<path style="clip-path:url(#SVGID_00000080929450350787035140000005132468367452279198_);fill:none;stroke:#000000;stroke-width:6.7481;stroke-miterlimit:10;" d="
					M520.05,557.19c-4.72,0-6.8-2.08-6.8-6.8v-92.76h-27.78c-4.72,0-6.8-2.08-6.8-6.8v-22.86c0-4.72,2.07-6.8,6.8-6.8h99.74
					c4.72,0,6.8,2.08,6.8,6.8v22.86c0,4.72-2.08,6.8-6.8,6.8h-27.77v92.76c0,4.72-2.08,6.8-6.8,6.8H520.05z"/>
				<path style="clip-path:url(#SVGID_00000080929450350787035140000005132468367452279198_);" d="M667.54,560.03
					c-46.85,0-58.37-15.49-58.37-38.55v-93.51c0-4.72,2.08-6.8,6.8-6.8h29.65c4.72,0,6.8,2.08,6.8,6.8v86.14
					c0,5.1,2.27,8.89,15.49,8.89c13.42,0,15.68-3.79,15.68-8.89v-86.14c0-4.72,1.9-6.8,6.8-6.8h28.72c4.72,0,6.8,2.08,6.8,6.8v93.51
					C725.91,544.54,714.39,560.03,667.54,560.03"/>
				
					<path style="clip-path:url(#SVGID_00000080929450350787035140000005132468367452279198_);fill:none;stroke:#000000;stroke-width:6.7481;stroke-miterlimit:10;" d="
					M667.54,560.03c-46.85,0-58.37-15.49-58.37-38.55v-93.51c0-4.72,2.08-6.8,6.8-6.8h29.65c4.72,0,6.8,2.08,6.8,6.8v86.14
					c0,5.1,2.27,8.89,15.49,8.89c13.42,0,15.68-3.79,15.68-8.89v-86.14c0-4.72,1.9-6.8,6.8-6.8h28.72c4.72,0,6.8,2.08,6.8,6.8v93.51
					C725.91,544.54,714.39,560.03,667.54,560.03z"/>
				<path style="clip-path:url(#SVGID_00000080929450350787035140000005132468367452279198_);" d="M757.99,557.19
					c-4.72,0-6.81-2.08-6.81-6.8V427.98c0-4.72,2.09-6.8,6.81-6.8h60.26c24.75,0,36.27,9.06,36.27,28.9v9.07
					c0,10.57-3.6,17.19-11.15,20.4c16.24,1.51,23.81,10.77,23.81,29.29v17.38c0,21.16-11.53,30.98-36.66,30.98H757.99z
					 M793.7,473.69h16.05c4.91,0,7.17-2.45,7.17-7.55v-5.29c0-5.1-2.26-7.56-7.17-7.56H793.7V473.69z M793.7,525.08h24.56
					c4.91,0,7.17-2.46,7.17-7.56v-7.36c0-5.1-2.26-7.37-7.17-7.37H793.7V525.08z"/>
				
					<path style="clip-path:url(#SVGID_00000080929450350787035140000005132468367452279198_);fill:none;stroke:#000000;stroke-width:6.7481;stroke-miterlimit:10;" d="
					M757.99,557.19c-4.72,0-6.81-2.08-6.81-6.8V427.98c0-4.72,2.09-6.8,6.81-6.8h60.26c24.75,0,36.27,9.06,36.27,28.9v9.07
					c0,10.57-3.6,17.19-11.15,20.4c16.24,1.51,23.81,10.77,23.81,29.29v17.38c0,21.16-11.53,30.98-36.66,30.98H757.99z
					 M793.7,473.69h16.05c4.91,0,7.17-2.45,7.17-7.55v-5.29c0-5.1-2.26-7.56-7.17-7.56H793.7V473.69z M793.7,525.08h24.56
					c4.91,0,7.17-2.46,7.17-7.56v-7.36c0-5.1-2.26-7.37-7.17-7.37H793.7V525.08z"/>
				<path style="clip-path:url(#SVGID_00000080929450350787035140000005132468367452279198_);" d="M894.33,557.19
					c-4.72,0-6.8-2.08-6.8-6.8V427.97c0-4.72,2.08-6.8,6.8-6.8h87.65c4.72,0,6.81,2.08,6.81,6.8v22.1c0,4.72-2.09,6.8-6.81,6.8
					h-52.14v14.55h36.84c4.71,0,6.79,2.08,6.79,6.8v20.22c0,4.72-2.08,6.8-6.79,6.8h-36.84v16.24h52.14c4.72,0,6.81,2.08,6.81,6.8
					v22.1c0,4.72-2.09,6.8-6.81,6.8H894.33z"/>
				
					<path style="clip-path:url(#SVGID_00000080929450350787035140000005132468367452279198_);fill:none;stroke:#000000;stroke-width:6.7481;stroke-miterlimit:10;" d="
					M894.33,557.19c-4.72,0-6.8-2.08-6.8-6.8V427.97c0-4.72,2.08-6.8,6.8-6.8h87.65c4.72,0,6.81,2.08,6.81,6.8v22.1
					c0,4.72-2.09,6.8-6.81,6.8h-52.14v14.55h36.84c4.71,0,6.79,2.08,6.79,6.8v20.22c0,4.72-2.08,6.8-6.79,6.8h-36.84v16.24h52.14
					c4.72,0,6.81,2.08,6.81,6.8v22.1c0,4.72-2.09,6.8-6.81,6.8H894.33z"/>
			</g>
		</g>
	</g>
</g>
</svg>
